<?xml version="1.0" encoding="UTF-8"?>
<svg version="1.1" xmlns="http://www.w3.org/2000/svg" width="990" height="873">
<path d="M0 0 C326.7 0 653.4 0 990 0 C990 288.09 990 576.18 990 873 C663.3 873 336.6 873 0 873 C0 584.91 0 296.82 0 0 Z " fill="#FEFEFE" transform="translate(0,0)"/>
<path d="M0 0 C0.33 0 0.66 0 1 0 C1.00257813 1.21171875 1.00515625 2.4234375 1.0078125 3.671875 C1.5013843 32.99358662 14.35498723 55.35954954 32 78 C32.60577881 78.7825415 33.21155762 79.56508301 33.83569336 80.37133789 C48.75599419 99.67075396 48.75599419 99.67075396 65.43359375 117.4375 C67.1774924 119.17704977 68.77180186 121.00521083 70.375 122.875 C76.02506006 129.40985694 82.16652163 135.39027444 88.7265625 141.00390625 C91.02586851 143.02271273 93.2543303 145.10799402 95.48120117 147.20605469 C102.11284787 153.43485815 109.03259423 159.11881841 116.25146484 164.64990234 C117.96875909 165.97587794 119.66847247 167.32122004 121.36328125 168.67578125 C124.88153626 171.48640291 128.42965862 174.25586866 132 177 C132.63260742 177.48662109 133.26521484 177.97324219 133.91699219 178.47460938 C199.23180912 228.2413452 278.85713016 256.84561822 359.375 269.25 C360.22501587 269.38101105 361.07503174 269.51202209 361.95080566 269.64700317 C385.15769376 273.20181064 408.93919719 275.78769173 432 270 C433.66492543 269.65807572 435.33097678 269.32132597 437 269 C433.88726615 276.29448741 425.93318115 279.91718806 419 283 C417.91976563 283.49113281 416.83953125 283.98226563 415.7265625 284.48828125 C412.05724603 286.04777725 408.31757258 287.10488718 404.4375 288 C403.71860596 288.16733643 402.99971191 288.33467285 402.2590332 288.50708008 C384.19223317 292.52213707 365.48751387 294.40414565 347 294 C345.85241211 293.98114746 345.85241211 293.98114746 344.68164062 293.96191406 C315.85965452 293.40546122 285.39844413 289.14230776 257.8203125 280.6015625 C254.73946273 279.94442834 252.97107856 279.98621982 250 281 C248.30585714 282.28615321 248.30585714 282.28615321 246.875 284 C243.20048119 287.89625702 239.19488495 291.18721198 235.02734375 294.54296875 C231.7899281 297.17049707 228.61089352 299.85848002 225.4375 302.5625 C220.03799384 307.14663134 214.57004831 311.62353347 209 316 C208.05495605 316.74805908 208.05495605 316.74805908 207.09082031 317.51123047 C197.65637228 324.9738135 188.09753434 332.17012073 178.22265625 339.0390625 C175.47213507 340.95504268 172.75279584 342.90407165 170.05859375 344.8984375 C141.78451288 365.79563417 111.62138837 384.38596859 81.23168945 402.01660156 C80.3683625 402.51805191 80.3683625 402.51805191 79.4875946 403.02963257 C77.79100488 404.01487361 76.09399143 404.99938488 74.39697266 405.98388672 C72.01210882 407.39931043 69.65907848 408.83321119 67.31787109 410.31689453 C66.72133224 410.69326553 66.1247934 411.06963654 65.51017761 411.45741272 C63.85343231 412.50823517 62.20324442 413.56937539 60.5534668 414.63110352 C59.71082275 415.08283936 58.86817871 415.5345752 58 416 C57.34 415.67 56.68 415.34 56 415 C56.60585938 414.42894531 57.21171875 413.85789062 57.8359375 413.26953125 C104.07283907 368.52643727 126.07266871 300.47627443 144.21850586 240.43261719 C145 238 145 238 146 236 C145.32582031 235.76152344 144.65164063 235.52304687 143.95703125 235.27734375 C140.31268523 233.70310181 137.03126251 231.68136026 133.6875 229.5625 C132.98818359 229.12147949 132.28886719 228.68045898 131.56835938 228.22607422 C114.51125742 217.38786642 97.79636732 205.80458183 83 192 C81.6717427 190.8275575 80.33858459 189.66063783 79 188.5 C69.04888743 179.81539267 59.59211144 171.03814194 51 161 C49.77990234 159.61361328 49.77990234 159.61361328 48.53515625 158.19921875 C17.48240946 122.62692499 -7.04630939 77.05709987 -7.25 29.0625 C-7.270625 27.85142578 -7.29125 26.64035156 -7.3125 25.39257812 C-7.34963629 16.81873735 -6.79566432 9.11127107 -1.875 1.875 C-0.946875 0.946875 -0.946875 0.946875 0 0 Z " fill="#EDBA32" transform="translate(297,229)"/>
<path d="M0 0 C3.31954568 5.47339236 2.44191556 11.98750781 2.4375 18.1875 C2.4375705 18.89328186 2.43764099 19.59906372 2.43771362 20.32623291 C2.17638923 89.15194336 -28.57751313 157.33665363 -67 213 C-67.45310547 213.66032227 -67.90621094 214.32064453 -68.37304688 215.00097656 C-74.12736293 223.36407376 -80.08987678 231.54117577 -86.3125 239.5625 C-87.15603027 240.65075073 -87.15603027 240.65075073 -88.01660156 241.76098633 C-91.85014439 246.65445072 -95.86283844 251.36098648 -100 256 C-111.73150899 251.83384749 -122.96643197 246.94410118 -134.1875 241.5625 C-135.41450119 240.97748215 -135.41450119 240.97748215 -136.66629028 240.38064575 C-178.25964961 220.5431923 -178.25964961 220.5431923 -196.04101562 209.24316406 C-198.37808051 207.76007154 -200.72850504 206.299055 -203.078125 204.8359375 C-214.8986634 197.43480837 -226.46409419 189.7318401 -237.77587891 181.57373047 C-239.86726318 180.09392114 -241.99006679 178.68306101 -244.13671875 177.28515625 C-245.34173018 176.46179205 -246.54620037 175.6376349 -247.75 174.8125 C-248.77609375 174.13832031 -249.8021875 173.46414063 -250.859375 172.76953125 C-256.73985734 165.16138896 -252.07351826 149.44911302 -251 140.3125 C-250.80672548 138.62832009 -250.6140128 136.9440756 -250.421875 135.25976562 C-249.95438706 131.17240419 -249.47931749 127.08599039 -249 123 C-246.26582507 124.08897188 -243.54176258 125.19243714 -240.828125 126.33203125 C-234.13709125 129.10048299 -227.42953008 131.64048928 -220.5 133.75 C-219.56075684 134.04741089 -219.56075684 134.04741089 -218.60253906 134.35083008 C-206.04184313 138.03616221 -192.92758824 138.40861898 -179.9375 138.375 C-179.17675171 138.37478851 -178.41600342 138.37457703 -177.63220215 138.37435913 C-164.75756418 138.33881524 -152.49461587 137.30488516 -140 134 C-139.33274902 133.82871582 -138.66549805 133.65743164 -137.97802734 133.48095703 C-100.13422504 123.37698211 -67.00607411 96.07524261 -43 66 C-41.78376953 64.52660156 -41.78376953 64.52660156 -40.54296875 63.0234375 C-26.92430394 46.36255334 -15.58297972 27.9645943 -5.19726562 9.15966797 C-3.49493216 6.08894167 -1.74897433 3.04435953 0 0 Z " fill="#0257A5" transform="translate(719,180)"/>
<path d="M0 0 C-0.53109375 1.05316406 -1.0621875 2.10632813 -1.609375 3.19140625 C-12.1925539 24.58783315 -15.22098759 44.71573218 -9 68 C-8.69449219 69.23363281 -8.38898438 70.46726562 -8.07421875 71.73828125 C-1.57008372 96.12956009 14.0899056 117.27171516 30.85546875 135.63671875 C32.73451113 137.7074303 34.56014406 139.81078337 36.375 141.9375 C42.61802886 149.09308296 49.42682676 155.77632568 56.65234375 161.93359375 C59.27211135 164.23951232 61.80668369 166.6236755 64.34472656 169.01879883 C71.01608596 175.3118938 77.8099319 181.2992327 85 187 C86.12739959 187.91792451 87.25363534 188.8372797 88.37890625 189.7578125 C109.30391525 206.80823791 131.76563795 222.26931473 155 236 C155.6295459 236.37833984 156.2590918 236.75667969 156.90771484 237.14648438 C227.7370308 279.6607593 309.89474935 314.14913374 431.76147461 310.61791992 C434.87259727 309.75912927 437.92389498 308.75847788 440.97070312 307.6953125 C443.94877208 306.67491544 446.96642243 305.83907465 450 305 C441.4316872 316.08465745 428.86309751 321.41028045 416 326 C415.21367188 326.30550781 414.42734375 326.61101562 413.6171875 326.92578125 C360.16387164 346.74212458 287.22633405 325.1529338 235.26367188 308.60742188 C232.90770894 307.87041676 232.90770894 307.87041676 230 308 C230 307.34 230 306.68 230 306 C228.77667969 305.75894531 227.55335938 305.51789063 226.29296875 305.26953125 C220.12997882 303.89237375 214.25059367 301.81634528 208.3125 299.6875 C207.09860596 299.25236084 205.88471191 298.81722168 204.6340332 298.36889648 C152.97923767 279.61519687 104.15473143 253.04062784 61 219 C59.85221737 218.1085312 58.70375737 217.21793398 57.5546875 216.328125 C51.14057162 211.34682774 44.84549558 206.25386026 38.67480469 200.97363281 C35.41614054 198.18586245 32.10763107 195.48138624 28.75 192.8125 C13.4993397 180.38521267 -1.42382882 166.14517527 -14 151 C-14.63550781 150.25363281 -15.27101563 149.50726563 -15.92578125 148.73828125 C-27.88482652 134.46176103 -38.5790485 119.63736109 -47 103 C-47.50418457 102.0102417 -47.50418457 102.0102417 -48.01855469 101.00048828 C-57.71787598 81.73318054 -64.75068988 59.02062523 -58.9765625 37.375 C-54.30913014 23.50620484 -43.63032438 14.49454163 -31 8 C-21.56520212 3.88318395 -10.43088867 -0.35838496 0 0 Z " fill="#ECB933" transform="translate(368,152)"/>
<path d="M0 0 C12.4730783 9.68839105 21.85488232 23.15348447 24.51953125 38.95703125 C26.11004418 57.19619032 23.0505316 73.2708228 11.83203125 88.14453125 C0.95747492 101.02829132 -12.85402269 108.61440232 -29.48046875 110.95703125 C-47.69465965 112.27034762 -63.16929784 108.03634726 -77.22753906 96.09765625 C-88.32434278 86.23998408 -96.3708536 72.45448207 -97.70336914 57.4465332 C-98.17178527 46.4180143 -98.2474495 36.12238093 -93.48046875 25.95703125 C-93.15304687 25.126875 -92.825625 24.29671875 -92.48828125 23.44140625 C-86.3647337 9.22762434 -73.09394608 -0.97502538 -59.66796875 -7.78125 C-39.70688145 -15.68251372 -17.37370845 -11.95582036 0 0 Z " fill="#025BAB" transform="translate(576.48046875,162.04296875)"/>
<path d="M0 0 C5.15297355 1.50463592 9.51658066 3.80631932 14.1875 6.375 C42.35327121 21.42735461 72.94455014 33.3909724 104 41 C104 44 104 44 102.85546875 45.5078125 C98.44604779 49.7829888 93.81033051 53.69164745 89.02734375 57.54296875 C85.7899281 60.17049707 82.61089352 62.85848002 79.4375 65.5625 C74.03799384 70.14663134 68.57004831 74.62353347 63 79 C62.3699707 79.49870605 61.73994141 79.99741211 61.09082031 80.51123047 C51.65637228 87.9738135 42.09753434 95.17012073 32.22265625 102.0390625 C29.47213507 103.95504268 26.75279584 105.90407165 24.05859375 107.8984375 C-4.21548712 128.79563417 -34.37861163 147.38596859 -64.76831055 165.01660156 C-65.34386185 165.35090179 -65.91941315 165.68520203 -66.5124054 166.02963257 C-68.20899512 167.01487361 -69.90600857 167.99938488 -71.60302734 168.98388672 C-73.98789118 170.39931043 -76.34092152 171.83321119 -78.68212891 173.31689453 C-79.57693718 173.88145103 -79.57693718 173.88145103 -80.48982239 174.45741272 C-82.14656769 175.50823517 -83.79675558 176.56937539 -85.4465332 177.63110352 C-86.28917725 178.08283936 -87.13182129 178.5345752 -88 179 C-88.66 178.67 -89.32 178.34 -90 178 C-89.39414062 177.42894531 -88.78828125 176.85789062 -88.1640625 176.26953125 C-43.72142408 133.26273192 -21.30074622 67.93673939 -3.80908203 10.07226562 C-3.45056152 8.88826172 -3.09204102 7.70425781 -2.72265625 6.484375 C-2.41207275 5.44506836 -2.10148926 4.40576172 -1.78149414 3.33496094 C-1 1 -1 1 0 0 Z " fill="#0259A7" transform="translate(443,466)"/>
<path d="M0 0 C0.52456787 0.39396973 1.04913574 0.78793945 1.58959961 1.19384766 C3.03826867 2.28122315 4.48742644 3.36794779 5.93701172 4.45410156 C7.43951245 5.57999915 8.9408166 6.70749409 10.44140625 7.8359375 C19.93207836 14.7223552 30.49379152 19.85410197 41 25 C39.36661948 34.84036607 36.27378537 44.16425705 33.1875 53.625 C32.9019928 54.50316376 32.6164856 55.38132751 32.32232666 56.28610229 C19.09730396 96.78400975 2.89904025 139.7226352 -27 171 C-27.70640625 171.78117188 -28.4128125 172.56234375 -29.140625 173.3671875 C-35.93312676 180.623925 -43.89784869 186.80270799 -54 188 C-52.63710423 183.19399913 -50.52451225 179.01759698 -48.21826172 174.61865234 C-32.19434146 143.93552848 -19.7092316 109.72702397 -12 76 C-11.80100098 75.13407227 -11.60200195 74.26814453 -11.39697266 73.37597656 C-5.93645756 49.23072616 -1.8444224 24.69323723 0 0 Z " fill="#0360B1" transform="translate(370,458)"/>
<path d="M0 0 C3.55758756 0.88939689 5.35641639 1.67532353 8.3515625 3.58984375 C9.19299805 4.12158203 10.03443359 4.65332031 10.90136719 5.20117188 C11.80016602 5.77416016 12.69896484 6.34714844 13.625 6.9375 C23.2478611 12.97446805 32.99153196 18.63128437 43 24 C43.90105469 24.48936035 44.80210937 24.9787207 45.73046875 25.48291016 C75.83304343 41.78847144 107.42922313 54.51319684 140 65 C139.10941325 70.95139476 134.06529405 74.73605649 130.0625 78.875 C129.24458984 79.77992188 128.42667969 80.68484375 127.58398438 81.6171875 C121.56161137 87.82406368 121.56161137 87.82406368 117.57080078 88.27368164 C114.87847713 87.79381613 112.54591286 86.99784084 110 86 C108.59729858 85.54028809 108.59729858 85.54028809 107.16625977 85.07128906 C103.99670454 84.01589049 100.87582831 82.86596575 97.75 81.6875 C96.58686279 81.25163574 95.42372559 80.81577148 94.2253418 80.36669922 C66.64257943 69.88014398 39.84024783 57.61021286 14.4375 42.5625 C13.57337997 42.05062637 13.57337997 42.05062637 12.69180298 41.52841187 C6.58172735 37.89451265 0.79926526 34.14233233 -5 30 C-3.35 20.1 -1.7 10.2 0 0 Z " fill="#026DC1" transform="translate(458,393)"/>
<path d="M0 0 C0.33 0 0.66 0 1 0 C1.21914063 1.24652344 1.43828125 2.49304687 1.6640625 3.77734375 C5.89372948 26.86712775 12.86381342 49.42524983 32.35546875 64.24609375 C42.60302208 71.04247698 52.95775857 73.15881402 65 74 C62.0779658 75.9480228 61.05342961 76.27808148 57.75 76.75 C42.54068929 79.67231298 29.09102518 86.93263584 19.5625 99.3125 C8.65967948 115.62072732 6.40554377 131.93053097 5 151 C4.67 151 4.34 151 4 151 C3.82984375 149.77925781 3.6596875 148.55851563 3.484375 147.30078125 C0.39426589 125.94638641 -5.33313797 104.33324635 -23.375 90.6875 C-25.23102547 89.42986526 -27.10544859 88.19881219 -29 87 C-29.76828125 86.505 -30.5365625 86.01 -31.328125 85.5 C-38.94934152 81.14501913 -47.43566907 80.2220565 -56 79 C-56 78.34 -56 77.68 -56 77 C-55.18917969 76.78085938 -54.37835938 76.56171875 -53.54296875 76.3359375 C-35.9920586 71.30971643 -22.07914534 62.41113153 -12.99072266 46.19970703 C-5.24312428 31.42512652 -2.15625844 16.3842971 0 0 Z " fill="#EFBE35" transform="translate(421,30)"/>
<path d="M0 0 C1.91847928 1.21275297 3.73039826 2.46307472 5.5 3.8828125 C5.83 2.5628125 6.16 1.2428125 6.5 -0.1171875 C10.79 -0.1171875 15.08 -0.1171875 19.5 -0.1171875 C19.5 14.4028125 19.5 28.9228125 19.5 43.8828125 C15.21 43.8828125 10.92 43.8828125 6.5 43.8828125 C6.005 41.9028125 6.005 41.9028125 5.5 39.8828125 C4.5925 40.5221875 3.685 41.1615625 2.75 41.8203125 C-2.15090433 44.93050179 -5.67932461 45.27743456 -11.5 44.8828125 C-17.95641219 43.0381233 -21.69280697 39.36758135 -25.5 33.8828125 C-28.87169157 27.25181909 -28.87029473 18.10543745 -26.58984375 11.078125 C-21.37920731 1.12597695 -11.10011296 -4.96036298 0 0 Z " fill="#054D96" transform="translate(779.5,728.1171875)"/>
<path d="M0 0 C1.48831242 0.00667405 2.97660807 0.01863442 4.46484375 0.03515625 C5.22345703 0.03966797 5.98207031 0.04417969 6.76367188 0.04882812 C8.64326246 0.06064945 10.52281274 0.07858547 12.40234375 0.09765625 C14.88524898 6.95416605 17.36301416 13.81250989 19.83422089 20.67324543 C20.9818437 23.8588486 22.13123207 27.04379145 23.28466797 30.22729492 C24.61041305 33.88661661 25.92845729 37.54868785 27.24609375 41.2109375 C27.86949646 42.92667717 27.86949646 42.92667717 28.50549316 44.67707825 C28.88588745 45.73795151 29.26628174 46.79882477 29.65820312 47.8918457 C29.99573608 48.82672318 30.33326904 49.76160065 30.68103027 50.72480774 C31.40234375 53.09765625 31.40234375 53.09765625 31.40234375 56.09765625 C26.78234375 56.09765625 22.16234375 56.09765625 17.40234375 56.09765625 C15.40234375 50.09765625 15.40234375 50.09765625 15.40234375 47.09765625 C8.14234375 47.42765625 0.88234375 47.75765625 -6.59765625 48.09765625 C-7.58765625 50.73765625 -8.57765625 53.37765625 -9.59765625 56.09765625 C-14.21765625 56.09765625 -18.83765625 56.09765625 -23.59765625 56.09765625 C-23.01989541 49.61928712 -20.9054173 44.00063953 -18.59765625 37.94921875 C-18.20191406 36.8960849 -17.80617188 35.84295105 -17.3984375 34.75790405 C-16.56454779 32.54290507 -15.72723977 30.32919033 -14.88671875 28.11669922 C-13.59515625 24.71607387 -12.31429532 21.31156541 -11.03515625 17.90625 C-10.22327519 15.7536727 -9.41079627 13.60132079 -8.59765625 11.44921875 C-8.21222656 10.42639801 -7.82679688 9.40357727 -7.4296875 8.34976196 C-7.07261719 7.41143524 -6.71554687 6.47310852 -6.34765625 5.50634766 C-6.033125 4.67696686 -5.71859375 3.84758606 -5.39453125 2.99307251 C-4.01023093 -0.29957104 -3.94251402 0.10701721 0 0 Z " fill="#0577CF" transform="translate(462.59765625,715.90234375)"/>
<path d="M0 0 C3.24908346 2.11412965 5.52318913 4.9510491 7.7109375 8.11328125 C8.25234375 8.87253906 8.79375 9.63179687 9.3515625 10.4140625 C12.20603413 16.08199324 11.62765781 23.50405538 10.08984375 29.55859375 C7.42132204 35.60724297 2.20927279 40.39841101 -3.6796875 43.28515625 C-9.81867864 45.23345883 -16.88462005 45.18429529 -22.7265625 42.36328125 C-23.93070227 41.64029878 -25.1204372 40.89236478 -26.2890625 40.11328125 C-27.1965625 39.57703125 -28.1040625 39.04078125 -29.0390625 38.48828125 C-33.948025 33.30659861 -35.53149998 27.00463969 -35.7890625 19.98828125 C-35.53443641 13.58156039 -34.05737463 9.0521529 -29.640625 4.36328125 C-21.58155866 -2.95674407 -10.07946376 -4.4868499 0 0 Z " fill="#083B7C" transform="translate(897.2890625,728.88671875)"/>
<path d="M0 0 C4.78618187 2.86141626 8.03839768 7.57679537 10.5 12.5 C10.5 16.46 10.5 20.42 10.5 24.5 C0.6 24.5 -9.3 24.5 -19.5 24.5 C-18.51 26.81 -17.52 29.12 -16.5 31.5 C-12.87 31.5 -9.24 31.5 -5.5 31.5 C-5.17 30.51 -4.84 29.52 -4.5 28.5 C0.12 28.5 4.74 28.5 9.5 28.5 C8.28061224 35.81632653 8.28061224 35.81632653 4.5 39.5 C-2.35171733 43.69263196 -9.4514007 45.85827129 -17.5 44.5 C-24.51804465 41.37571856 -29.53730114 37.6374109 -32.5 30.5 C-34.46451923 24.09160277 -34.72309104 16.29139383 -31.9375 10.125 C-25.35822437 -1.11362029 -12.07949905 -5.2906333 0 0 Z " fill="#086DC0" transform="translate(406.5,728.5)"/>
<path d="M0 0 C4.45014692 3.39721037 8.43283737 7.80385446 9.75 13.3359375 C9.94151883 16.3484769 10.01733584 19.32685503 9.75 22.3359375 C8.75 23.3359375 8.75 23.3359375 5.88256836 23.44946289 C4.63096924 23.44422607 3.37937012 23.43898926 2.08984375 23.43359375 C1.09314415 23.43147133 1.09314415 23.43147133 0.0763092 23.42930603 C-2.05333899 23.42369268 -4.18288339 23.41113804 -6.3125 23.3984375 C-7.75325369 23.39342421 -9.19400903 23.38886101 -10.63476562 23.38476562 C-14.17321102 23.37371895 -17.71159539 23.35644542 -21.25 23.3359375 C-20.64816251 25.35639192 -19.97693904 27.35704789 -19.25 29.3359375 C-16.72524538 30.59831481 -14.93799534 30.43450154 -12.125 30.3984375 C-11.21492187 30.38941406 -10.30484375 30.38039063 -9.3671875 30.37109375 C-8.66851563 30.35949219 -7.96984375 30.34789062 -7.25 30.3359375 C-6.92 29.3459375 -6.59 28.3559375 -6.25 27.3359375 C-1.3 27.3359375 3.65 27.3359375 8.75 27.3359375 C6.38687385 33.24375287 3.37044565 38.11363143 -2.171875 41.515625 C-8.40129169 44.13198001 -14.94541588 44.27182175 -21.375 42.2734375 C-26.81743056 39.96584694 -31.09540286 36.04286925 -33.41796875 30.59765625 C-35.14015378 23.84636751 -35.64946859 15.30302614 -33.3046875 8.65625 C-30.42412205 3.85530759 -26.72632524 0.54390103 -21.6875 -1.9140625 C-14.30051762 -3.52576775 -6.68957583 -3.9301258 0 0 Z " fill="#085FAD" transform="translate(703.25,729.6640625)"/>
<path d="M0 0 C4.8356762 2.88300357 8.14524449 6.98951321 10.9375 11.8125 C11.85370784 15.66057293 11.91230938 19.50011071 11.5625 23.4375 C10.5625 24.4375 10.5625 24.4375 7.69506836 24.55102539 C6.44346924 24.54578857 5.19187012 24.54055176 3.90234375 24.53515625 C2.90564415 24.53303383 2.90564415 24.53303383 1.8888092 24.53086853 C-0.24083899 24.52525518 -2.37038339 24.51270054 -4.5 24.5 C-5.94075369 24.49498671 -7.38150903 24.49042351 -8.82226562 24.48632812 C-12.36071102 24.47528145 -15.89909539 24.45800792 -19.4375 24.4375 C-19.1075 26.4175 -18.7775 28.3975 -18.4375 30.4375 C-15.42259443 31.44246852 -13.39568308 31.54085303 -10.25 31.5 C-9.34894531 31.49097656 -8.44789063 31.48195313 -7.51953125 31.47265625 C-6.83246094 31.46105469 -6.14539063 31.44945312 -5.4375 31.4375 C-5.1075 30.4475 -4.7775 29.4575 -4.4375 28.4375 C0.5125 28.4375 5.4625 28.4375 10.5625 28.4375 C8.17279195 34.41177014 5.20593313 39.46560608 -0.6171875 42.6171875 C-7.645144 45.1705973 -14.50116021 45.46524464 -21.48046875 42.546875 C-26.04575755 39.95896678 -29.54295207 36.53475118 -31.60546875 31.69921875 C-33.32765378 24.94793001 -33.83696859 16.40458864 -31.4921875 9.7578125 C-24.95799977 -1.13250039 -11.7627523 -5.29096773 0 0 Z " fill="#076CBF" transform="translate(628.4375,728.5625)"/>
<path d="M0 0 C6.67905534 3.06495847 10.37493958 8.29175704 13 14.9921875 C13.69830249 18.36447757 13.48046875 21.86866976 13.48046875 25.3125 C3.25046875 25.3125 -6.97953125 25.3125 -17.51953125 25.3125 C-15.86875223 29.06420424 -15.86875223 29.06420424 -13.51953125 32.3125 C-11.45180391 32.51191868 -11.45180391 32.51191868 -9.08203125 32.5 C-8.27894531 32.51417969 -7.47585937 32.52835938 -6.6484375 32.54296875 C-4.30322492 32.51412356 -4.30322492 32.51412356 -2.51953125 30.3125 C0.73828125 30.1171875 0.73828125 30.1171875 4.60546875 30.1875 C6.52746094 30.21457031 6.52746094 30.21457031 8.48828125 30.2421875 C9.96941406 30.27699219 9.96941406 30.27699219 11.48046875 30.3125 C9.57766161 36.58311444 7.18265735 39.76839223 1.41796875 43.0625 C-4.41106469 45.54293976 -10.49405248 46.52525767 -16.671875 44.6640625 C-22.75531444 41.93176916 -27.15968254 37.68883669 -29.66015625 31.48046875 C-31.77448084 23.68629947 -31.53340982 15.41246037 -27.79296875 8.18359375 C-21.37877435 -1.24094341 -10.57091545 -2.88446685 0 0 Z " fill="#084589" transform="translate(146.51953125,727.6875)"/>
<path d="M0 0 C4.62 0 9.24 0 14 0 C14.33 1.32 14.66 2.64 15 4 C15.7425 3.34 16.485 2.68 17.25 2 C22.03952731 -1.18543384 27.49307576 -0.70316909 33 0 C37.41415007 1.20749395 40.20006561 3.81025371 42.671875 7.59375 C46.41066338 14.5554624 45.52950956 22.40001533 45.3125 30.0625 C45.28737569 31.61129197 45.26456984 33.16012336 45.24414062 34.70898438 C45.19377335 38.47444202 45.09589968 42.23433925 45 46 C40.38 46 35.76 46 31 46 C30.97421875 43.95296875 30.9484375 41.9059375 30.921875 39.796875 C30.88014511 37.80775005 30.83827597 35.81862535 30.79248047 33.82958984 C30.76430901 32.45048349 30.74307528 31.07121682 30.72900391 29.69189453 C30.70752455 27.70577051 30.65876868 25.72000091 30.609375 23.734375 C30.58842773 22.54038086 30.56748047 21.34638672 30.54589844 20.11621094 C29.90222931 16.44188503 28.91774048 15.24874354 26 13 C23.09215119 12.29117697 21.057461 12.66028211 18 13 C16.15397869 14.0242362 16.15397869 14.0242362 15 16 C14.491851 19.19477975 14.491851 19.19477975 14.48828125 22.85546875 C14.47033005 23.51710526 14.45237885 24.17874176 14.43388367 24.86042786 C14.37979102 26.96938747 14.34589069 29.07812099 14.3125 31.1875 C14.27932573 32.61917208 14.24483595 34.05081433 14.20898438 35.48242188 C14.12159113 38.98831349 14.06152321 42.49317716 14 46 C9.38 46 4.76 46 0 46 C0 30.82 0 15.64 0 0 Z " fill="#083371" transform="translate(916,727)"/>
<path d="M0 0 C11.55 0 23.1 0 35 0 C35 3.63 35 7.26 35 11 C27.74 11 20.48 11 13 11 C13 14.96 13 18.92 13 23 C19.6 23 26.2 23 33 23 C33 26.3 33 29.6 33 33 C26.4 33 19.8 33 13 33 C13 37.29 13 41.58 13 46 C20.26 46 27.52 46 35 46 C35 49.3 35 52.6 35 56 C23.45 56 11.9 56 0 56 C0 37.52 0 19.04 0 0 Z " fill="#053372" transform="translate(28,716)"/>
<path d="M0 0 C4.29 0 8.58 0 13 0 C13.06058594 2.05863281 13.12117187 4.11726562 13.18359375 6.23828125 C13.24617658 8.23397829 13.30879126 10.22967447 13.37231445 12.2253418 C13.41560218 13.61135983 13.45728164 14.99742906 13.49731445 16.38354492 C13.55516584 18.37691798 13.61929776 20.37010565 13.68359375 22.36328125 C13.72025146 23.56251221 13.75690918 24.76174316 13.79467773 25.99731445 C13.87733025 29.04994349 13.87733025 29.04994349 15 32 C18.02437339 33.5121867 20.66241534 33.17263369 24 33 C26.35460678 32.32575833 26.35460678 32.32575833 28 31 C29.1007076 27.6978772 29.20627072 25.05916721 29.31640625 21.58203125 C29.35830078 20.32841797 29.40019531 19.07480469 29.44335938 17.78320312 C29.48267578 16.47287109 29.52199219 15.16253906 29.5625 13.8125 C29.60570992 12.47720022 29.649325 11.14191348 29.69335938 9.80664062 C29.79956434 6.53788766 29.90029785 3.26895777 30 0 C34.29 0 38.58 0 43 0 C43 15.18 43 30.36 43 46 C38.71 46 34.42 46 30 46 C29.505 43.525 29.505 43.525 29 41 C28.071875 41.825 27.14375 42.65 26.1875 43.5 C21.40562827 46.9281443 16.67531851 46.79313457 11 46 C6.05383503 44.06454414 2.36467722 39.72935445 0 35 C-0.08667255 32.37372867 -0.11560135 29.77437517 -0.09765625 27.1484375 C-0.0962413 26.37440582 -0.09482635 25.60037415 -0.09336853 24.80288696 C-0.08776403 22.32688558 -0.07521083 19.85097412 -0.0625 17.375 C-0.05748558 15.69791797 -0.05292257 14.02083453 -0.04882812 12.34375 C-0.03779315 8.22913194 -0.02052554 4.11458122 0 0 Z " fill="#07549E" transform="translate(216,727)"/>
<path d="M0 0 C5.16141029 3.05471221 9.47515664 6.2065894 12.0625 11.8125 C12.0625 13.1325 12.0625 14.4525 12.0625 15.8125 C-1.02400583 16.60937789 -1.02400583 16.60937789 -4.875 13.25 C-5.555625 12.445625 -6.23625 11.64125 -6.9375 10.8125 C-10.58157137 10.47589855 -10.58157137 10.47589855 -13.9375 11.8125 C-16.97822121 14.85322121 -17.14048593 17.74997012 -17.25 21.875 C-17.23371353 25.39830668 -16.8317335 27.80716134 -14.9375 30.8125 C-11.80889505 32.37680248 -9.38147075 32.16877284 -5.9375 31.8125 C-5.35226562 30.98621094 -4.76703125 30.15992188 -4.1640625 29.30859375 C-1.9375 26.8125 -1.9375 26.8125 1.515625 26.32421875 C2.76859375 26.38222656 4.0215625 26.44023438 5.3125 26.5 C6.57578125 26.54511719 7.8390625 26.59023438 9.140625 26.63671875 C10.10484375 26.69472656 11.0690625 26.75273438 12.0625 26.8125 C11.32078299 33.32106677 8.89522017 36.54299158 4.0625 40.8125 C-2.01624216 44.90308213 -8.74281511 46.15645097 -15.9375 44.8125 C-21.61404865 42.41272311 -26.71591927 39.18180122 -29.9375 33.8125 C-31.69401997 29.36690764 -32.23430506 25.5837609 -32.25 20.8125 C-32.26675781 19.636875 -32.28351562 18.46125 -32.30078125 17.25 C-31.69027434 11.47316041 -29.40616312 7.74980734 -25 4.0625 C-24.33097656 3.49015625 -23.66195312 2.9178125 -22.97265625 2.328125 C-16.54891111 -2.45577733 -7.48527689 -2.95383124 0 0 Z " fill="#0675CB" transform="translate(578.9375,728.1875)"/>
<path d="M0 0 C4.57502085 2.98445286 7.65906462 7.1603059 10 12.0625 C10 13.0525 10 14.0425 10 15.0625 C7.58145554 15.19786629 5.17050217 15.29670279 2.75 15.375 C2.06808594 15.41689453 1.38617187 15.45878906 0.68359375 15.50195312 C-1.328125 15.55078125 -1.328125 15.55078125 -5 15.0625 C-7.21875 12.5625 -7.21875 12.5625 -9 10.0625 C-11.11990105 9.46537454 -11.11990105 9.46537454 -13.25 9.75 C-15.10625 9.9046875 -15.10625 9.9046875 -17 10.0625 C-19.82518051 16.27564599 -20.09921828 22.76484517 -17.9375 29.25 C-16.0170329 31.3727919 -16.0170329 31.3727919 -12.625 31.6875 C-8.85784589 31.44363685 -8.85784589 31.44363685 -6.9375 28.5625 C-2.06294182 24.41393985 3.85454328 25.6882841 10 26.0625 C9.04927518 31.68128371 6.85244985 35.31018257 2.6875 39.25 C-4.11349566 43.83671801 -9.83508429 45.09782072 -18 44.0625 C-24.10771253 42.29944896 -28.66300108 38.43995686 -32 33.0625 C-33.81485646 28.63994877 -34.29682292 24.82833259 -34.3125 20.0625 C-34.32925781 18.886875 -34.34601563 17.71125 -34.36328125 16.5 C-33.78298987 11.00907082 -31.5151351 7.14982784 -27.625 3.3125 C-27.06039063 2.74015625 -26.49578125 2.1678125 -25.9140625 1.578125 C-19.01390855 -3.88567037 -7.69199331 -3.79367017 0 0 Z " fill="#067DD6" transform="translate(533,728.9375)"/>
<path d="M0 0 C3.85968313 2.9193891 6.95563801 6.71791783 8.68359375 11.2734375 C8.68359375 12.2634375 8.68359375 13.2534375 8.68359375 14.2734375 C6.26504929 14.40880379 3.85409592 14.50764029 1.43359375 14.5859375 C0.75167969 14.62783203 0.06976563 14.66972656 -0.6328125 14.71289062 C-2.64453125 14.76171875 -2.64453125 14.76171875 -6.31640625 14.2734375 C-8.61328125 11.79296875 -8.61328125 11.79296875 -10.31640625 9.2734375 C-13.31640625 8.44010417 -13.31640625 8.44010417 -16.31640625 9.2734375 C-18.93928264 11.00408606 -18.93928264 11.00408606 -20.31640625 14.2734375 C-20.97705341 19.22457973 -20.81333416 23.68947978 -19.31640625 28.4609375 C-16.64772818 30.879427 -14.76181728 30.87106229 -11.25390625 30.9375 C-9.02519461 30.4258254 -9.02519461 30.4258254 -8.046875 27.75390625 C-7.47582031 26.93535156 -6.90476563 26.11679687 -6.31640625 25.2734375 C-3.53041054 24.89283699 -1.38267874 24.79380845 1.37109375 24.9609375 C2.07298828 24.98349609 2.77488281 25.00605469 3.49804688 25.02929688 C5.22747705 25.08812103 6.95580813 25.17780361 8.68359375 25.2734375 C7.96826065 30.3088215 6.97204442 33.29268143 3.68359375 37.2734375 C-3.37667059 42.40512607 -10.6945866 44.56613335 -19.31640625 43.2734375 C-26.50357328 40.50836051 -31.11903455 36.24816926 -34.31640625 29.2734375 C-36.41601005 22.9746261 -36.52700734 14.95098093 -33.75390625 8.8359375 C-30.79732624 3.89437444 -26.71669926 0.50149439 -21.62890625 -2.1015625 C-14.15630923 -3.51148647 -6.73391883 -3.94795241 0 0 Z " fill="#084C93" transform="translate(200.31640625,729.7265625)"/>
<path d="M0 0 C5.15576822 -0.59719323 9.86485535 -0.89627781 15 0 C18.30663943 2.88193345 20.1809476 6.03630605 22 10 C24.07120916 7.50026481 25.85677016 5.32038253 27.1875 2.34375 C29 0 29 0 32.35546875 -0.48828125 C33.62003906 -0.43027344 34.88460937 -0.37226562 36.1875 -0.3125 C37.45980469 -0.26738281 38.73210937 -0.22226562 40.04296875 -0.17578125 C41.01878906 -0.11777344 41.99460938 -0.05976562 43 0 C39.14900274 7.33170632 34.66281175 14.16198078 30 21 C34.06530448 27.49954456 38.2444676 33.8725109 42.71484375 40.1015625 C44 42 44 42 44 43 C30.81588203 44.37440612 30.81588203 44.37440612 26.4453125 41.06640625 C22 35.30225622 22 35.30225622 22 32 C18.32966073 35.27708863 16.30718811 38.71522208 14 43 C9.05 43 4.1 43 -1 43 C7.42857143 28.14285714 7.42857143 28.14285714 12 21 C8.86397292 15.01698059 5.35317378 9.51317281 1.35546875 4.06640625 C0 2 0 2 0 0 Z " fill="#073B7D" transform="translate(68,728)"/>
<path d="M0 0 C4.62 0 9.24 0 14 0 C15.12688693 3.35354319 16.25156566 6.70780024 17.375 10.0625 C17.69210937 11.00544922 18.00921875 11.94839844 18.3359375 12.91992188 C20.00831533 17.91963476 21.60383909 22.91599992 23 28 C24.85794751 25.21307873 25.57614275 23.41981994 26.4375 20.25390625 C26.69273437 19.33416016 26.94796875 18.41441406 27.2109375 17.46679688 C27.60152344 16.02916992 27.60152344 16.02916992 28 14.5625 C28.51708653 12.66694268 29.03778996 10.77236747 29.5625 8.87890625 C29.90474609 7.61929077 29.90474609 7.61929077 30.25390625 6.33422852 C31 4 31 4 33 0 C37.62 0 42.24 0 47 0 C46.35510235 3.22448827 45.77275694 5.91687958 44.70898438 8.94824219 C44.32353455 10.0539859 44.32353455 10.0539859 43.93029785 11.18206787 C43.65423706 11.96245422 43.37817627 12.74284058 43.09375 13.546875 C42.80898804 14.35868225 42.52422607 15.1704895 42.23083496 16.00689697 C41.6306269 17.71529848 41.02874543 19.42311289 40.42529297 21.13037109 C39.49885347 23.75324598 38.57915173 26.37841516 37.66015625 29.00390625 C37.07592061 30.66420323 36.49129874 32.32436436 35.90625 33.984375 C35.63018921 34.77285828 35.35412842 35.56134155 35.06970215 36.37371826 C33.11515369 41.88484631 33.11515369 41.88484631 32 43 C30.65732587 43.08631874 29.31025678 43.10706473 27.96484375 43.09765625 C27.15595703 43.09443359 26.34707031 43.09121094 25.51367188 43.08789062 C24.66353516 43.07951172 23.81339844 43.07113281 22.9375 43.0625 C22.08349609 43.05798828 21.22949219 43.05347656 20.34960938 43.04882812 C18.23304337 43.03700373 16.11651315 43.01906769 14 43 C12.0002153 37.36040961 10.00654838 31.71870878 8.01855469 26.07495117 C7.34120296 24.15475969 6.66217438 22.23515888 5.98144531 20.31616211 C5.00405961 17.55996291 4.03269645 14.80170549 3.0625 12.04296875 C2.60315063 10.75376778 2.60315063 10.75376778 2.13452148 9.43852234 C1.85423096 8.63791885 1.57394043 7.83731537 1.28515625 7.01245117 C1.03644775 6.3085173 0.78773926 5.60458344 0.53149414 4.87931824 C0 3 0 3 0 0 Z " fill="#0463B4" transform="translate(323,728)"/>
<path d="M0 0 C4.29 0 8.58 0 13 0 C13 3.3 13 6.6 13 10 C15.97 10 18.94 10 22 10 C22 13.96 22 17.92 22 22 C19.36 22 16.72 22 14 22 C14.33 28.6 14.66 35.2 15 42 C17.64 42.33 20.28 42.66 23 43 C23 46.96 23 50.92 23 55 C9.74725275 55.44175824 9.74725275 55.44175824 5 52 C1.18415986 47.77163661 -0.12860843 45.40673386 -0.09765625 39.7734375 C-0.09443359 38.7421875 -0.09121094 37.7109375 -0.08789062 36.6484375 C-0.07951172 35.56820312 -0.07113281 34.48796875 -0.0625 33.375 C-0.05798828 32.28703125 -0.05347656 31.1990625 -0.04882812 30.078125 C-0.03701776 27.38536211 -0.02054778 24.69270812 0 22 C-1.65 22 -3.3 22 -5 22 C-5 18.04 -5 14.08 -5 10 C-3.35 10 -1.7 10 0 10 C0 6.7 0 3.4 0 0 Z " fill="#0A498D" transform="translate(811,717)"/>
<path d="M0 0 C4.62 0 9.24 0 14 0 C14 3.3 14 6.6 14 10 C16.64 10 19.28 10 22 10 C22 13.63 22 17.26 22 21 C19.36 21 16.72 21 14 21 C14.33 27.93 14.66 34.86 15 42 C18.465 42.495 18.465 42.495 22 43 C22 46.63 22 50.26 22 54 C8.03621113 54.86078151 8.03621113 54.86078151 4.25 51.75 C0.83957329 47.58170068 -0.25537566 44.98380953 -0.1953125 39.578125 C-0.18886719 38.55332031 -0.18242187 37.52851562 -0.17578125 36.47265625 C-0.15902344 35.40917969 -0.14226562 34.34570312 -0.125 33.25 C-0.11597656 32.17105469 -0.10695313 31.09210937 -0.09765625 29.98046875 C-0.07411305 27.32008722 -0.04122799 24.66015664 0 22 C-1.65 22 -3.3 22 -5 22 C-5 18.04 -5 14.08 -5 10 C-3.35 10 -1.7 10 0 10 C0 6.7 0 3.4 0 0 Z " fill="#085CA8" transform="translate(272,717)"/>
<path d="M0 0 C4.62 0 9.24 0 14 0 C14.33 1.98 14.66 3.96 15 6 C15.43570313 5.566875 15.87140625 5.13375 16.3203125 4.6875 C16.91585937 4.130625 17.51140625 3.57375 18.125 3 C18.70507812 2.443125 19.28515625 1.88625 19.8828125 1.3125 C22 0 22 0 28 0 C28 4.95 28 9.9 28 15 C25.78645833 15.13020833 23.57291667 15.26041667 21.359375 15.390625 C18.18543629 16.21038401 17.05168498 17.45870838 15 20 C14.36171531 22.88873888 14.36171531 22.88873888 14.390625 26.078125 C14.35839844 27.23828125 14.32617188 28.3984375 14.29296875 29.59375 C14.27169922 31.40359375 14.27169922 31.40359375 14.25 33.25 C14.22035156 34.47203125 14.19070313 35.6940625 14.16015625 36.953125 C14.08948587 39.96839445 14.04247603 42.98420161 14 46 C9.38 46 4.76 46 0 46 C0 30.82 0 15.64 0 0 Z " fill="#0A59A3" transform="translate(720,727)"/>
<path d="M0 0 C4.36055444 1.87576923 7.10310841 4.10383281 9.15625 8.421875 C10.59966214 12.82383376 10.66070212 16.33757082 8.83203125 20.51953125 C6.40046995 24.72089982 4.24627758 27.20289562 -0.21484375 29.33984375 C-3.15234375 29.73828125 -3.15234375 29.73828125 -6.21484375 29.71484375 C-7.22546875 29.72257813 -8.23609375 29.7303125 -9.27734375 29.73828125 C-13.86650052 29.11581584 -16.42771227 27.1907967 -19.52734375 23.83984375 C-21.89121571 18.93699821 -21.996391 14.6910499 -21.21484375 9.33984375 C-16.94772049 0.31323685 -9.32946857 -2.78074107 0 0 Z " fill="#E19818" transform="translate(434.21484375,805.66015625)"/>
<path d="M0 0 C4.29 0 8.58 0 13 0 C13 19.14 13 38.28 13 58 C8.71 58 4.42 58 0 58 C0 38.86 0 19.72 0 0 Z " fill="#0161B3" transform="translate(648,713)"/>
<path d="M0 0 C3.30563428 2.25384155 6.02922531 4.22754596 7.75 7.875 C8.72261667 14.04102266 8.40854628 19.64850532 4.75 24.875 C0.11153305 29.07861068 -4.49673461 29.22394899 -10.51953125 29.15234375 C-14.40279894 28.75790597 -16.43716195 27.54719615 -19.25 24.875 C-22.51619018 20.41120676 -22.87782255 15.96101323 -22.73828125 10.5703125 C-21.95033823 6.22086705 -19.66953292 3.56513713 -16.25 0.875 C-11.07567296 -2.24635518 -5.58715935 -1.9340167 0 0 Z " fill="#E19716" transform="translate(586.25,806.125)"/>
<path d="M0 0 C4.62 0 9.24 0 14 0 C14 14.85 14 29.7 14 45 C9.38 45 4.76 45 0 45 C0 30.15 0 15.3 0 0 Z " fill="#064185" transform="translate(841,727)"/>
<path d="M0 0 C4.62 0 9.24 0 14 0 C14 14.85 14 29.7 14 45 C9.38 45 4.76 45 0 45 C0 30.15 0 15.3 0 0 Z " fill="#055EAD" transform="translate(302,727)"/>
<path d="M0 0 C2.701875 -0.061875 5.40375 -0.12375 8.1875 -0.1875 C9.02949951 -0.21481201 9.87149902 -0.24212402 10.73901367 -0.27026367 C15.32319574 -0.32093869 18.29360873 0.00557089 22 3 C24.4915904 6.7373856 24.45793285 8.57331583 24 13 C22.125 15.9375 22.125 15.9375 20 18 C19.34 18 18.68 18 18 18 C19.98 21.96 21.96 25.92 24 30 C20.8125 30.5 20.8125 30.5 17 30 C14.44648935 27.23158994 12 23.86112137 12 20 C10.35 20 8.7 20 7 20 C7 23.3 7 26.6 7 30 C4.69 30 2.38 30 0 30 C0 20.1 0 10.2 0 0 Z " fill="#E19A1B" transform="translate(487,805)"/>
<path d="M0 0 C7 0 7 0 8.6809082 1.23754883 C9.05046631 1.80497803 9.42002441 2.37240723 9.80078125 2.95703125 C10.43016602 3.88418945 10.43016602 3.88418945 11.07226562 4.83007812 C11.48154297 5.48427734 11.89082031 6.13847656 12.3125 6.8125 C12.95541992 7.77639648 12.95541992 7.77639648 13.61132812 8.75976562 C14.76228466 10.4924849 15.88269072 12.24539548 17 14 C17.99 15.485 17.99 15.485 19 17 C19.33 11.39 19.66 5.78 20 0 C22.31 0 24.62 0 27 0 C27 9.9 27 19.8 27 30 C20 30 20 30 18.10375977 28.43945312 C17.63768311 27.72724609 17.17160645 27.01503906 16.69140625 26.28125 C16.17255859 25.51425781 15.65371094 24.74726562 15.11914062 23.95703125 C14.60544922 23.14621094 14.09175781 22.33539062 13.5625 21.5 C13.02173828 20.68917969 12.48097656 19.87835937 11.92382812 19.04296875 C10.59431548 17.04281699 9.29422849 15.02316177 8 13 C7.67 18.61 7.34 24.22 7 30 C4.69 30 2.38 30 0 30 C0 20.1 0 10.2 0 0 Z " fill="#E29B1F" transform="translate(176,805)"/>
<path d="M0 0 C2.97 0 5.94 0 9 0 C10.5686719 4.11093684 12.13519738 8.22268296 13.69970703 12.33520508 C14.23264044 13.7351714 14.76616785 15.13491174 15.30029297 16.53442383 C16.06632935 18.54189394 16.83025102 20.55015746 17.59375 22.55859375 C18.05458984 23.76829834 18.51542969 24.97800293 18.99023438 26.22436523 C20 29 20 29 20 30 C17.69 30 15.38 30 13 30 C12.34 28.68 11.68 27.36 11 26 C6.71 26 2.42 26 -2 26 C-2.66 27.32 -3.32 28.64 -4 30 C-6.31 30 -8.62 30 -11 30 C-8.81763743 23.22682582 -6.36792454 16.577907 -3.8125 9.9375 C-3.44447266 8.97650391 -3.07644531 8.01550781 -2.69726562 7.02539062 C-1.79990328 4.68292528 -0.90078716 2.34114999 0 0 Z " fill="#E1991A" transform="translate(749,805)"/>
<path d="M0 0 C2.05078125 0.03255208 4.1015625 0.06510417 6.15234375 0.09765625 C7.80527952 4.1573023 9.44844028 8.22083525 11.08984375 12.28515625 C11.55841797 13.43564453 12.02699219 14.58613281 12.50976562 15.77148438 C12.95771484 16.88330078 13.40566406 17.99511719 13.8671875 19.140625 C14.280896 20.1618042 14.69460449 21.1829834 15.12084961 22.23510742 C16.06733401 24.86174166 16.69096311 27.34924048 17.15234375 30.09765625 C14.84234375 30.09765625 12.53234375 30.09765625 10.15234375 30.09765625 C9.65734375 27.62265625 9.65734375 27.62265625 9.15234375 25.09765625 C4.53234375 25.09765625 -0.08765625 25.09765625 -4.84765625 25.09765625 C-5.17765625 26.74765625 -5.50765625 28.39765625 -5.84765625 30.09765625 C-8.15765625 30.09765625 -10.46765625 30.09765625 -12.84765625 30.09765625 C-12.19526042 26.348942 -11.15358019 22.9544326 -9.81640625 19.39453125 C-9.41808594 18.33234375 -9.01976562 17.27015625 -8.609375 16.17578125 C-8.19300781 15.0775 -7.77664063 13.97921875 -7.34765625 12.84765625 C-6.93128906 11.73390625 -6.51492188 10.62015625 -6.0859375 9.47265625 C-2.56750023 0.13570297 -2.56750023 0.13570297 0 0 Z " fill="#E1991A" transform="translate(277.84765625,804.90234375)"/>
<path d="M0 0 C1.98 0 3.96 0 6 0 C6 9.9 6 19.8 6 30 C4.02 30 2.04 30 0 30 C-2.05960757 27.94039243 -3.55764336 26.16956257 -5.1875 23.8125 C-5.61224609 23.23435547 -6.03699219 22.65621094 -6.47460938 22.06054688 C-8.85233131 18.78794359 -10.90840457 15.48599239 -13 12 C-13.33 17.94 -13.66 23.88 -14 30 C-15.98 30 -17.96 30 -20 30 C-20 20.43 -20 10.86 -20 1 C-13 1 -13 1 -11.10375977 2.56054688 C-10.63768311 3.27275391 -10.17160645 3.98496094 -9.69140625 4.71875 C-9.17255859 5.48574219 -8.65371094 6.25273438 -8.11914062 7.04296875 C-7.60544922 7.85378906 -7.09175781 8.66460938 -6.5625 9.5 C-6.02173828 10.31082031 -5.48097656 11.12164063 -4.92382812 11.95703125 C-3.59431548 13.95718301 -2.29422849 15.97683823 -1 18 C-0.67 12.06 -0.34 6.12 0 0 Z " fill="#E09511" transform="translate(681,805)"/>
<path d="M0 0 C2.31 0 4.62 0 7 0 C7 3.96 7 7.92 7 12 C11.62 12 16.24 12 21 12 C21 8.04 21 4.08 21 0 C22.98 0 24.96 0 27 0 C27 9.9 27 19.8 27 30 C25.02 30 23.04 30 21 30 C21 26.04 21 22.08 21 18 C16.38 18 11.76 18 7 18 C7 21.96 7 25.92 7 30 C4.69 30 2.38 30 0 30 C0 20.1 0 10.2 0 0 Z " fill="#E19A1C" transform="translate(331,805)"/>
<path d="M0 0 C2.866875 -0.0825 5.73375 -0.165 8.6875 -0.25 C9.58170654 -0.28641602 10.47591309 -0.32283203 11.3972168 -0.36035156 C15.35160537 -0.41534138 17.53801811 -0.26390493 21.04296875 1.73828125 C23.78358441 4.90557959 23.74099448 6.76386536 23.4609375 10.8046875 C23 13 23 13 21.25 16.0625 C16.3294916 18.99588 11.59089386 18.40126033 6 18 C6 21.63 6 25.26 6 29 C4.02 29 2.04 29 0 29 C0 19.43 0 9.86 0 0 Z " fill="#E09510" transform="translate(534,806)"/>
<path d="M0 0 C7.26 0 14.52 0 22 0 C22 1.98 22 3.96 22 6 C17.05 6 12.1 6 7 6 C7 7.98 7 9.96 7 12 C11.62 12 16.24 12 21 12 C21 13.98 21 15.96 21 18 C16.38 18 11.76 18 7 18 C7 20.31 7 22.62 7 25 C11.62 25 16.24 25 21 25 C21 26.65 21 28.3 21 30 C14.07 30 7.14 30 0 30 C0 20.1 0 10.2 0 0 Z " fill="#E29C21" transform="translate(631,805)"/>
<path d="M0 0 C7.26 0 14.52 0 22 0 C22 1.98 22 3.96 22 6 C17.05 6 12.1 6 7 6 C7 7.98 7 9.96 7 12 C11.62 12 16.24 12 21 12 C21 13.98 21 15.96 21 18 C16.38 18 11.76 18 7 18 C7 20.31 7 22.62 7 25 C11.62 25 16.24 25 21 25 C21 26.65 21 28.3 21 30 C14.07 30 7.14 30 0 30 C0 20.1 0 10.2 0 0 Z " fill="#E29C21" transform="translate(238,805)"/>
<path d="M0 0 C2.31 0 4.62 0 7 0 C7.02187378 0.93066284 7.02187378 0.93066284 7.04418945 1.88012695 C7.11866588 4.69154633 7.21532564 7.50177749 7.3125 10.3125 C7.33505859 11.28896484 7.35761719 12.26542969 7.38085938 13.27148438 C7.41630859 14.20927734 7.45175781 15.14707031 7.48828125 16.11328125 C7.51446533 16.97735596 7.54064941 17.84143066 7.56762695 18.73168945 C8.08659501 21.45429373 8.77992344 22.37568917 11 24 C14.04211431 24.4167552 14.04211431 24.4167552 17 24 C19.52128356 21.47871644 19.29353069 20.48760987 19.4140625 16.9921875 C19.45273437 16.00605469 19.49140625 15.01992188 19.53125 14.00390625 C19.5621875 12.97136719 19.593125 11.93882812 19.625 10.875 C19.66367187 9.83472656 19.70234375 8.79445313 19.7421875 7.72265625 C19.83664766 5.14861689 19.92221214 2.57458845 20 0 C22.31 0 24.62 0 27 0 C27.11681812 3.54138618 27.187455 7.0822724 27.25 10.625 C27.30027344 12.12353516 27.30027344 12.12353516 27.3515625 13.65234375 C27.43276635 19.7832342 27.16258641 23.37324029 23 28 C19.47960293 30.34693138 17.79942991 30.32723764 13.625 30.375 C11.94277344 30.41753906 11.94277344 30.41753906 10.2265625 30.4609375 C6.29374404 29.89910629 4.74275399 28.83967109 2 26 C0.31333184 22.51658409 -0.24258826 19.77094324 -0.1953125 15.91796875 C-0.18886719 14.98662109 -0.18242187 14.05527344 -0.17578125 13.09570312 C-0.15902344 12.13599609 -0.14226562 11.17628906 -0.125 10.1875 C-0.11597656 9.20845703 -0.10695313 8.22941406 -0.09765625 7.22070312 C-0.07417182 4.81354939 -0.0413284 2.40690257 0 0 Z " fill="#E29B1F" transform="translate(451,805)"/>
<path d="M0 0 C2.31 0 4.62 0 7 0 C7.02187378 0.93066284 7.02187378 0.93066284 7.04418945 1.88012695 C7.11866588 4.69154633 7.21532564 7.50177749 7.3125 10.3125 C7.33505859 11.28896484 7.35761719 12.26542969 7.38085938 13.27148438 C7.41630859 14.20927734 7.45175781 15.14707031 7.48828125 16.11328125 C7.51446533 16.97735596 7.54064941 17.84143066 7.56762695 18.73168945 C8.08659501 21.45429373 8.77992344 22.37568917 11 24 C14.04211431 24.4167552 14.04211431 24.4167552 17 24 C19.52128356 21.47871644 19.29353069 20.48760987 19.4140625 16.9921875 C19.45273438 16.00605469 19.49140625 15.01992188 19.53125 14.00390625 C19.5621875 12.97136719 19.593125 11.93882812 19.625 10.875 C19.66367188 9.83472656 19.70234375 8.79445313 19.7421875 7.72265625 C19.83664766 5.14861689 19.92221214 2.57458845 20 0 C22.31 0 24.62 0 27 0 C27.11681812 3.54138618 27.187455 7.0822724 27.25 10.625 C27.30027344 12.12353516 27.30027344 12.12353516 27.3515625 13.65234375 C27.43276635 19.7832342 27.16258641 23.37324029 23 28 C19.47960293 30.34693138 17.79942991 30.32723764 13.625 30.375 C11.94277344 30.41753906 11.94277344 30.41753906 10.2265625 30.4609375 C6.29374404 29.89910629 4.74275399 28.83967109 2 26 C0.31333184 22.51658409 -0.24258826 19.77094324 -0.1953125 15.91796875 C-0.18886719 14.98662109 -0.18242187 14.05527344 -0.17578125 13.09570312 C-0.15902344 12.13599609 -0.14226562 11.17628906 -0.125 10.1875 C-0.11597656 9.20845703 -0.10695312 8.22941406 -0.09765625 7.22070312 C-0.07417182 4.81354939 -0.0413284 2.40690257 0 0 Z " fill="#E29B1F" transform="translate(140,805)"/>
<path d="M0 0 C1.64627294 0.71226503 3.25404005 1.51236885 4.8515625 2.328125 C4.1915625 3.978125 3.5315625 5.628125 2.8515625 7.328125 C2.1915625 7.163125 1.5315625 6.998125 0.8515625 6.828125 C-2.87943544 6.20629201 -6.36717128 6.26403574 -10.1484375 6.328125 C-10.1484375 7.318125 -10.1484375 8.308125 -10.1484375 9.328125 C-9.47296875 9.52148438 -8.7975 9.71484375 -8.1015625 9.9140625 C-7.20953125 10.17445313 -6.3175 10.43484375 -5.3984375 10.703125 C-4.51671875 10.95835937 -3.635 11.21359375 -2.7265625 11.4765625 C1.45015331 12.85614439 3.35826316 13.58817599 5.8515625 17.328125 C6.35991542 21.2254974 6.18118433 22.83369226 3.9765625 26.140625 C1.42843076 28.76370179 0.62622749 29.27316923 -3.01171875 29.53125 C-4.14996094 29.54671875 -5.28820312 29.5621875 -6.4609375 29.578125 C-7.59144531 29.60390625 -8.72195313 29.6296875 -9.88671875 29.65625 C-13.42620087 29.30018234 -15.28103371 28.37242789 -18.1484375 26.328125 C-17.8184375 25.008125 -17.4884375 23.688125 -17.1484375 22.328125 C-15.3359375 21.703125 -15.3359375 21.703125 -13.1484375 21.328125 C-12.1584375 21.988125 -11.1684375 22.648125 -10.1484375 23.328125 C-7.86194902 23.56919826 -7.86194902 23.56919826 -5.4609375 23.453125 C-4.65269531 23.43507813 -3.84445312 23.41703125 -3.01171875 23.3984375 C-2.39683594 23.37523437 -1.78195312 23.35203125 -1.1484375 23.328125 C-1.19449432 21.35936659 -1.19449432 21.35936659 -2.1484375 19.328125 C-4.79148837 18.14037486 -4.79148837 18.14037486 -7.9609375 17.390625 C-11.78380361 16.22694638 -13.87759923 15.56818619 -16.8984375 12.890625 C-18.34173714 9.93186074 -18.87475005 8.55618077 -18.1484375 5.328125 C-12.95358103 -0.68697196 -7.73742656 -2.41970431 0 0 Z " fill="#E1991A" transform="translate(318.1484375,805.671875)"/>
<path d="M0 0 C2.9375 1.875 2.9375 1.875 5 5 C5.84124396 9.49347382 5.92523314 13.7760451 4.1484375 18.046875 C2.51720352 20.37720926 0.80430209 21.79772997 -1.97265625 22.49609375 C-5.53209056 22.71564764 -7.61222868 22.29828563 -10.4375 20.125 C-13.71664548 15.66536215 -13.6203006 11.40075057 -13 6 C-10.20459456 -0.63743186 -6.80150037 -1.61391534 0 0 Z " fill="#F6F7FA" transform="translate(889,739)"/>
<path d="M0 0 C4.6145058 1.73043967 7.0879717 4.0253967 9.5 8.3125 C10.28185685 12.76908402 9.85883542 14.65669733 7.6875 18.625 C5.17063765 21.71714518 3.60484877 23.14437084 -0.375 23.75 C-4.50845985 23.17131562 -5.84407545 21.4237259 -8.5 18.3125 C-8.83 17.9825 -9.16 17.6525 -9.5 17.3125 C-10.10064666 12.84946721 -10.53493097 8.29734975 -8.40625 4.21484375 C-5.70024917 1.17059281 -4.11759469 0.36764238 0 0 Z " fill="#F8FAFC" transform="translate(776.5,737.6875)"/>
<path d="M0 0 C4.22797927 -0.96891192 4.22797927 -0.96891192 7 0 C10.10641799 3.38734622 12.56788536 7.10861658 15 11 C15.63615234 9.80890625 15.63615234 9.80890625 16.28515625 8.59375 C18.04152016 5.53651875 19.75288389 2.71996487 22 0 C25.9375 -0.6875 25.9375 -0.6875 29 0 C27.87874432 2.44797707 26.62146892 4.55037954 25.08984375 6.77734375 C19.80222982 14.54082772 17.74736462 20.35248625 18 30 C15.69 30 13.38 30 11 30 C11.04382813 29.16339844 11.08765625 28.32679688 11.1328125 27.46484375 C11.10749264 16.03292698 6.63000584 9.89214939 0 1 C0 0.67 0 0.34 0 0 Z " fill="#E29B1E" transform="translate(379,805)"/>
<path d="M0 0 C7.92 0 15.84 0 24 0 C24 1.98 24 3.96 24 6 C21.36 6 18.72 6 16 6 C16 13.92 16 21.84 16 30 C13.69 30 11.38 30 9 30 C9 22.08 9 14.16 9 6 C6.03 6 3.06 6 0 6 C0 4.02 0 2.04 0 0 Z " fill="#E29D23" transform="translate(694,805)"/>
<path d="M0 0 C7.92 0 15.84 0 24 0 C24 1.98 24 3.96 24 6 C21.03 6 18.06 6 15 6 C15 13.92 15 21.84 15 30 C13.02 30 11.04 30 9 30 C9 22.08 9 14.16 9 6 C6.03 6 3.06 6 0 6 C0 4.02 0 2.04 0 0 Z " fill="#E19817" transform="translate(600,805)"/>
<path d="M0 0 C3.55247432 0.87379409 4.94828114 2.4927342 6.9375 5.4765625 C7.57747166 8.28564164 7.56770793 10.66617577 6.9375 13.4765625 C5.14386089 16.2865971 3.91869065 17.98596718 0.9375 19.4765625 C-2.89441838 19.90233121 -4.59199683 19.77977565 -7.875 17.6640625 C-10.69127704 14.84778546 -11.00098978 13.03015452 -11.4375 9.1015625 C-11.0625 5.4765625 -11.0625 5.4765625 -9.0625 2.5390625 C-5.72726514 0.24608853 -3.96242945 -0.28517485 0 0 Z " fill="#FEFBF7" transform="translate(581.0625,810.5234375)"/>
<path d="M0 0 C3.18845573 0.27174339 4.2010566 0.82153773 7 2.6875 C9.23495494 6.03993241 9.67920629 7.81666275 9.43359375 11.75390625 C8.75194607 14.79368646 7.19767713 16.55446044 5 18.6875 C2.11138291 20.13180855 0.20352299 20.06438506 -3 19.6875 C-6.53662065 16.70102034 -8.74387886 14.56572171 -9.375 9.9375 C-8.72703849 4.32183358 -5.81632916 0.38555212 0 0 Z " fill="#FEFCF8" transform="translate(428,810.3125)"/>
<path d="M0 0 C1.98 0 3.96 0 6 0 C6 7.92 6 15.84 6 24 C10.29 24 14.58 24 19 24 C19 25.98 19 27.96 19 30 C12.73 30 6.46 30 0 30 C0 20.1 0 10.2 0 0 Z " fill="#E19716" transform="translate(775,805)"/>
<path d="M0 0 C1.98 0 3.96 0 6 0 C6 7.92 6 15.84 6 24 C10.29 24 14.58 24 19 24 C19 25.98 19 27.96 19 30 C12.73 30 6.46 30 0 30 C0 20.1 0 10.2 0 0 Z " fill="#E19716" transform="translate(212,805)"/>
<path d="M0 0 C3 1.5 3 1.5 5 4 C5.26830652 6.82839792 5.01285404 9.34125814 4 12 C0.31494085 14.4567061 -2.72036526 14.68887481 -7 14 C-9.5 12.375 -9.5 12.375 -11 10 C-11.60605429 6.36367425 -11.47161336 4.71685231 -9.4375 1.625 C-6.05010319 -0.63326454 -3.9982841 -0.56116268 0 0 Z " fill="#0B62AF" transform="translate(312,708)"/>
<path d="M0 0 C3 1.5 3 1.5 5 4 C5.26830652 6.82839792 5.01285404 9.34125814 4 12 C0.31494085 14.4567061 -2.72036526 14.68887481 -7 14 C-9.5 12.375 -9.5 12.375 -11 10 C-11.60605429 6.36367425 -11.47161336 4.71685231 -9.4375 1.625 C-6.05010319 -0.63326454 -3.9982841 -0.56116268 0 0 Z " fill="#0D4688" transform="translate(851,708)"/>
<path d="M0 0 C1.98 0 3.96 0 6 0 C6 9.57 6 19.14 6 29 C4.02 29 2.04 29 0 29 C0 19.43 0 9.86 0 0 Z " fill="#E0940E" transform="translate(726,806)"/>
<path d="M0 0 C2.70353012 2.70353012 3.46754496 5.82188219 4.625 9.375 C4.85445313 10.04789063 5.08390625 10.72078125 5.3203125 11.4140625 C6.44631186 14.81887008 7 17.37395155 7 21 C2.71 21 -1.58 21 -6 21 C-4.27806003 13.8662487 -2.42393534 6.92552955 0 0 Z " fill="#EEF6FB" transform="translate(466,731)"/>
<path d="M0 0 C2.4375 2.4375 2.4375 2.4375 4 5 C4 5.66 4 6.32 4 7 C-1.61 7 -7.22 7 -13 7 C-10.09762571 -0.25593574 -7.80236726 -2.22924779 0 0 Z " fill="#F1F6FB" transform="translate(622,738)"/>
<path d="M0 0 C2.388737 1.45572443 3.98543968 2.98543968 6 5 C6 5.99 6 6.98 6 8 C0.39 8 -5.22 8 -11 8 C-10.67 6.68 -10.34 5.36 -10 4 C-9.34 4 -8.68 4 -8 4 C-7.67 3.01 -7.34 2.02 -7 1 C-4.33978324 -0.33010838 -2.96663565 -0.40454123 0 0 Z " fill="#F0F6FB" transform="translate(398,737)"/>
<path d="M0 0 C1.9375 1.3125 1.9375 1.3125 3 3 C3 4.32 3 5.64 3 7 C-2.28 7 -7.56 7 -13 7 C-10.04226422 -0.39433944 -7.87570752 -2.00472555 0 0 Z " fill="#F2F6FA" transform="translate(695,738)"/>
<path d="M0 0 C3.3128205 1.12776868 4.82106066 2.23234856 6.9375 5 C6.9375 5.99 6.9375 6.98 6.9375 8 C1.3275 8 -4.2825 8 -10.0625 8 C-7.66655363 3.20810726 -5.67774436 0 0 0 Z " fill="#F4F7FA" transform="translate(139.0625,737)"/>
<path d="M0 0 C1.64574566 -0.02688151 3.29161413 -0.04634123 4.9375 -0.0625 C5.85402344 -0.07410156 6.77054687 -0.08570313 7.71484375 -0.09765625 C10 0 10 0 11 1 C11.04080783 2.99958364 11.04254356 5.00045254 11 7 C8.59454362 8.20272819 7.05003047 8.10071472 4.375 8.0625 C3.14910156 8.04896484 3.14910156 8.04896484 1.8984375 8.03515625 C0.95871094 8.01775391 0.95871094 8.01775391 0 8 C0 5.36 0 2.72 0 0 Z " fill="#FCF7EE" transform="translate(493,811)"/>
<path d="M0 0 C1.45792884 -0.05399736 2.91642712 -0.09279177 4.375 -0.125 C5.18710937 -0.14820313 5.99921875 -0.17140625 6.8359375 -0.1953125 C9 0 9 0 11 2 C10.44444444 6.55555556 10.44444444 6.55555556 9 8 C7.48071962 8.07179964 5.95832518 8.08392007 4.4375 8.0625 C3.61121094 8.05347656 2.78492188 8.04445313 1.93359375 8.03515625 C1.29550781 8.02355469 0.65742187 8.01195312 0 8 C0 5.36 0 2.72 0 0 Z " fill="#FEFCF9" transform="translate(540,811)"/>
<path d="M0 0 C3.33773709 3.64116773 3.97864902 7.28607242 5 12 C2.03 12 -0.94 12 -4 12 C-3.33501617 7.61110675 -1.81242323 4.0188515 0 0 Z " fill="#FCF7EE" transform="translate(753,812)"/>
<path d="M0 0 C0.66 0 1.32 0 2 0 C2.50833591 1.24663331 3.00631145 2.49749387 3.5 3.75 C3.7784375 4.44609375 4.056875 5.1421875 4.34375 5.859375 C5 8 5 8 5 12 C2.36 12 -0.28 12 -3 12 C-2.49202991 7.6822542 -1.80317221 3.96697886 0 0 Z " fill="#FCF7EE" transform="translate(279,812)"/>
</svg>
